# xmcd
# 
# Track frame offsets:
#     150
#     29115
#     52447
#     91437
#     105170
#     130840
#     161320
#     179472
#     199795
#     218930
#     246502
#     273715
#     294777
# 
# Disc length: 4242
# 
# Revision: 0
# Processed by: cddbd v1.5.2PL0 Copyright (c) Steve Scherf et al.
# Submitted via: fre:ac v1.0.17
# 
DISCID=c710900d
DTITLE=Rory Gallagher - Live! In Europe - Stage Struck
DYEAR=1972
DGENRE=Blues
TTITLE0=Messin' With The Kid
TTITLE1=Laundromat
TTITLE2=I Could've Had Religion
TTITLE3=Pistol Slapper Blues
TTITLE4=Going To My Home Town
TTITLE5=Bullfrog Blues
TTITLE6=Shin Kicker
TTITLE7=Wayward Child
TTITLE8=Brute Force And Arrogance
TTITLE9=Moonchild
TTITLE10=Follow Me
TTITLE11=Bought And Sold
TTITLE12=Shadow Play
EXTD=
EXTT0=
EXTT1=
EXTT2=
EXTT3=
EXTT4=
EXTT5=
EXTT6=
EXTT7=
EXTT8=
EXTT9=
EXTT10=
EXTT11=
EXTT12=
PLAYORDER=
